<?xml version="1.0" encoding="utf-8"?>
<!-- Generator: Adobe Illustrator 22.0.1, SVG Export Plug-In . SVG Version: 6.00 Build 0)  -->
<svg version="1.1" id="Layer_1" xmlns="http://www.w3.org/2000/svg" xmlns:xlink="http://www.w3.org/1999/xlink" x="0px" y="0px"
	 viewBox="0 0 150 150" style="enable-background:new 0 0 150 150;" xml:space="preserve">
<style type="text/css">
	.st0{fill:#FFFFFF;}
	.st1{fill:#0066CC;}
</style>
<g>
	<path class="st0" d="M29.9,76.5c0,25.3,16.8,41.2,45.6,41.7h0.9c17.7,0,39.4-5.7,42.5-27h-16.4c-3.5,11.5-15.5,16.4-27,16.4
		c-17.8-0.5-28.4-12-29.7-28.4h29.7h45.6l0.1-4.9c0-27-15.9-42.5-44.3-42.5h-1.3C47.2,32.2,29.9,47.7,29.9,76.5z M75.5,42.4h0.9
		c13.7,0.1,27.5,7.1,27.9,25.7H75.5H46.3C48.9,50.8,60,42.9,75.5,42.4z"/>
	<path class="st1" d="M14.6,35.6c-2.3,1.3-3.7,3.8-3.7,6.5v65.8c0,2.7,1.4,5.2,3.8,6.5l57,32.9c2.3,1.3,5.2,1.3,7.5,0l57-32.9
		c2.3-1.3,3.8-3.8,3.8-6.5V42.1c0-2.7-1.4-5.2-3.8-6.5l-57-32.9c-1.1-0.7-2.4-1-3.8-1c-1.3,0-2.6,0.3-3.8,1L14.6,35.6z M75.6,31.8
		h1.3c28.4,0,44.3,15.5,44.3,42.5l-0.1,4.9H75.5H45.8c1.3,16.4,11.9,27.9,29.7,28.4c11.5,0,23.5-4.9,27-16.4h16.4
		c-3.1,21.3-24.8,27-42.5,27h-0.9c-28.8-0.5-45.6-16.4-45.6-41.7C29.9,47.7,47.2,32.2,75.6,31.8z"/>
	<path class="st1" d="M104.3,68.1c-0.4-18.6-14.2-25.6-27.9-25.7h-0.9C60,42.9,48.9,50.8,46.3,68.1h29.2H104.3z"/>
</g>
</svg>
